<?xml version="1.0" encoding="UTF-8"?>
<svg xmlns="http://www.w3.org/2000/svg" xmlns:xlink="http://www.w3.org/1999/xlink" width="54px" height="48px" viewBox="0 0 53 48" version="1.1">
<g id="surface1">
<path style=" stroke:none;fill-rule:nonzero;fill:rgb(0%,0%,0%);fill-opacity:1;" d="M 29.078125 8.785156 C 27.84375 8.964844 27.207031 9.71875 27.207031 10.976562 C 27.207031 11.785156 27.277344 11.964844 27.808594 12.503906 C 28.371094 13.078125 28.496094 13.113281 29.519531 13.113281 C 30.96875 13.113281 31.816406 12.863281 32.402344 12.289062 C 33.25 11.40625 33.160156 9.753906 32.207031 8.980469 C 31.730469 8.605469 30.828125 8.550781 29.078125 8.785156 Z M 31.625 9.519531 C 32.101562 9.773438 32.347656 10.671875 32.136719 11.300781 C 31.90625 11.964844 30.917969 12.394531 29.664062 12.394531 C 28.957031 12.394531 28.691406 12.304688 28.355469 11.945312 C 27.453125 11.03125 27.984375 9.738281 29.34375 9.519531 C 30.511719 9.324219 31.253906 9.324219 31.625 9.519531 Z M 31.625 9.519531 "/>
<path style=" stroke:none;fill-rule:nonzero;fill:rgb(0%,0%,0%);fill-opacity:1;" d="M 14.308594 9.054688 C 13.585938 9.179688 12.808594 9.378906 12.597656 9.484375 C 11.75 9.96875 11.414062 11.390625 11.925781 12.394531 C 12.367188 13.238281 12.84375 13.472656 14.222656 13.472656 C 16.820312 13.472656 18.195312 12.628906 18.195312 11.03125 C 18.195312 10.382812 18.089844 10.113281 17.613281 9.59375 C 16.941406 8.839844 16.289062 8.730469 14.308594 9.054688 Z M 17.117188 10.167969 C 18.179688 11.53125 16.820312 12.753906 14.257812 12.753906 C 13.410156 12.753906 13.160156 12.683594 12.808594 12.304688 C 12.277344 11.785156 12.226562 10.992188 12.683594 10.4375 C 13.019531 10.007812 14.097656 9.753906 15.757812 9.71875 C 16.640625 9.699219 16.800781 9.753906 17.117188 10.167969 Z M 17.117188 10.167969 "/>
<path style=" stroke:none;fill-rule:nonzero;fill:rgb(0%,0%,0%);fill-opacity:1;" d="M 12.898438 21.503906 C 10.882812 22.492188 9.167969 24.84375 8.480469 27.59375 C 8.039062 29.300781 8.003906 32.15625 8.390625 33.683594 C 9.203125 36.828125 11.765625 39.628906 14.859375 40.722656 C 15.96875 41.121094 16.464844 41.191406 18.109375 41.191406 C 20.527344 41.171875 21.925781 40.761719 23.480469 39.609375 C 24.609375 38.765625 25.898438 37.007812 26.09375 36.054688 C 26.234375 35.351562 26.394531 35.441406 26.746094 36.46875 C 27.207031 37.761719 28.53125 39.160156 29.890625 39.808594 C 30.933594 40.292969 31.144531 40.328125 33.214844 40.328125 C 35.953125 40.3125 36.957031 39.96875 38.496094 38.53125 C 40.351562 36.773438 41.339844 34.132812 41.394531 30.808594 C 41.429688 28.8125 41.109375 27.574219 39.980469 25.277344 C 38.53125 22.328125 36.765625 21.394531 35.332031 22.832031 C 34.539062 23.640625 34.609375 24.394531 35.617188 26.046875 C 37.3125 28.851562 37.613281 29.890625 37.277344 32.03125 C 36.816406 35.046875 35.527344 36.519531 33.300781 36.539062 C 32.488281 36.558594 32.066406 36.449219 31.445312 36.109375 C 30.246094 35.425781 29.769531 34.472656 28.886719 30.933594 C 27.914062 27.054688 27.628906 26.585938 26.234375 26.585938 C 25.335938 26.585938 24.820312 27.179688 24.574219 28.492188 C 24.46875 29.066406 24.273438 30.035156 24.167969 30.628906 C 24.0625 31.222656 23.65625 32.335938 23.285156 33.089844 C 22.066406 35.570312 20.121094 36.84375 17.488281 36.878906 C 16.339844 36.898438 16.042969 36.84375 15.191406 36.378906 C 13.957031 35.675781 12.824219 34.277344 12.4375 32.929688 C 12.226562 32.171875 12.171875 31.472656 12.226562 30.199219 C 12.367188 27.71875 13.003906 26.480469 14.734375 25.292969 C 15.335938 24.878906 15.953125 24.394531 16.113281 24.179688 C 16.710938 23.441406 16.378906 21.917969 15.511719 21.304688 C 14.929688 20.890625 14.007812 20.964844 12.898438 21.503906 Z M 15.175781 22.042969 C 15.371094 22.222656 15.601562 22.617188 15.652344 22.921875 C 15.757812 23.53125 15.527344 23.820312 13.957031 25.007812 C 12.191406 26.351562 11.414062 28.257812 11.519531 31.042969 C 11.570312 32.480469 11.660156 32.964844 12.046875 33.808594 C 12.648438 35.121094 13.957031 36.539062 15.105469 37.148438 C 15.863281 37.5625 16.199219 37.617188 17.488281 37.617188 C 19.539062 37.597656 20.6875 37.132812 22.1875 35.710938 C 23.636719 34.328125 24.433594 32.75 24.925781 30.269531 C 25.351562 28.078125 25.5625 27.519531 25.988281 27.394531 C 26.996094 27.070312 27.4375 27.828125 28.25 31.328125 C 28.886719 34.007812 29.238281 34.886719 30.035156 35.820312 C 31.183594 37.148438 32.808594 37.617188 34.484375 37.113281 C 35.28125 36.878906 35.652344 36.628906 36.375 35.820312 C 37.613281 34.457031 38.035156 33.035156 37.949219 30.59375 C 37.894531 28.671875 37.664062 28.023438 36.214844 25.707031 C 35.421875 24.414062 35.351562 23.875 35.863281 23.351562 C 36.429688 22.777344 37.328125 22.886719 38.019531 23.585938 C 38.726562 24.289062 39.75 26.226562 40.261719 27.789062 C 40.722656 29.171875 40.773438 32.066406 40.367188 33.683594 C 39.324219 37.851562 36.695312 39.898438 32.664062 39.664062 C 30.175781 39.519531 28.796875 38.695312 27.59375 36.664062 C 26.464844 34.742188 26.183594 34.742188 25.050781 36.664062 C 24.078125 38.28125 23.425781 38.910156 21.925781 39.664062 L 20.597656 40.328125 L 18.125 40.328125 C 15.953125 40.3125 15.511719 40.277344 14.679688 39.917969 C 11.976562 38.765625 9.929688 36.429688 9.117188 33.609375 C 8.746094 32.335938 8.746094 29.351562 9.097656 27.933594 C 9.789062 25.222656 11.253906 23.171875 13.160156 22.257812 C 14.398438 21.648438 14.664062 21.628906 15.175781 22.042969 Z M 15.175781 22.042969 "/>
</g>
</svg>
